<svg width="25" height="24" viewBox="0 0 25 24" fill="none" xmlns="http://www.w3.org/2000/svg">
<path d="M13.721 0.84366C13.473 0.32809 12.948 0 12.371 0C11.795 0 11.275 0.32809 11.022 0.84366L8.00799 7.0445L1.27699 8.0382C0.714992 8.1225 0.245989 8.5162 0.0729893 9.0552C-0.100011 9.5942 0.0399921 10.1895 0.442992 10.5879L5.32699 15.4201L4.17399 22.2491C4.07999 22.8115 4.315 23.3833 4.779 23.7161C5.243 24.0489 5.857 24.0911 6.363 23.8239L12.376 20.6133L18.389 23.8239C18.896 24.0911 19.51 24.0536 19.974 23.7161C20.438 23.3786 20.672 22.8115 20.578 22.2491L19.421 15.4201L24.304 10.5879C24.707 10.1895 24.853 9.5942 24.675 9.0552C24.496 8.5162 24.032 8.1225 23.47 8.0382L16.735 7.0445L13.721 0.84366Z" fill="#E3E3E3"/>
</svg>
