<svg width="25" height="24" viewBox="0 0 25 24" fill="none" xmlns="http://www.w3.org/2000/svg">
<path d="M13.7212 0.84366C13.4728 0.32809 12.9479 0 12.3714 0C11.7949 0 11.2747 0.32809 11.0216 0.84366L8.0079 7.0445L1.27748 8.0382C0.715062 8.1225 0.246361 8.5162 0.0729514 9.0552C-0.100469 9.5942 0.0401417 10.1895 0.443212 10.5879L5.327 15.4201L4.174 22.2491C4.0803 22.8115 4.3146 23.3833 4.7786 23.7161C5.2426 24.0489 5.8566 24.0911 6.3628 23.8239L12.3761 20.6133L18.3894 23.8239C18.8956 24.0911 19.5096 24.0536 19.9736 23.7161C20.4376 23.3786 20.6719 22.8115 20.5782 22.2491L19.4205 15.4201L24.3043 10.5879C24.7073 10.1895 24.8526 9.5942 24.6745 9.0552C24.4964 8.5162 24.0324 8.1225 23.47 8.0382L16.7349 7.0445L13.7212 0.84366Z" fill="#FF6060"/>
</svg>
